<svg xmlns="http://www.w3.org/2000/svg" width="412" height="512" fill="none">
  <path fill="#4a4a43" d="M387.013 286.658c-7.365-12.634-16.097-24.569-24.562-36.651-9.079-12.975-18.188-25.848-20.595-41.295-2.175-13.824.242-27.659 3.279-41.279 3.213-14.342 6.905-28.6 7.864-43.193.593-9.172.026-18.434-.707-27.587-.776-9.39-2.028-18.762-4.057-28.034-3.651-16.794-10.138-36.536-26.995-46.657-3.099-1.85-6.518-3.179-10.054-4.027-11.737-7.906-25.728-12.595-41.081-12.98-21.242-.527-42.117 6.582-60.54 15.5-21.462 10.364-40.895 23.879-58.929 38.393-17.441 14.015-33.68 29.207-48.696 45.235-13.352 14.229-25.587 29.196-35.907 45.278-14.487 22.571-25.748 46.785-34.3 71.538-17.689 51.094-24.729 106.634-13.351 159.173 5.315 24.55 15.069 48.688 30.715 69.568 13.207 17.643 31.88 31.603 53.524 40.652 45.12 18.841 98.569 17.664 146.553 8.064 24.364-4.866 48.152-12.26 70.622-22.05 22.437-9.756 45.081-22.07 60.504-39.849 17.052-19.611 22.917-43.511 24.556-67.653.969-14.322 1.154-28.681-1.814-42.814-2.92-13.761-8.774-26.897-16.029-39.332Z"/>
  <path fill="#4a4a43" d="M294.386 427.547c.657 1.164 1.472 1.132 1.866-.108-.523-.319-.898-.338-1.461-.827-.19.348-.249.588-.405.935ZM322.742 218.235c2.57-2.991 4.617-5.418 6.341-7.424-5.207.782-5.207.782-6.341 7.424ZM357.038 270.692c2.953-.149 5.498-.283 10.214-.57-5.957-5.344-8.865-6.658-10.214.57ZM282.645 440.386c-2.885.147-3.095 2.604-.308 4.297 3.588 2.172 4.753-.22 6.256-4.394-2.618.035-4.285-.002-5.948.097ZM312.778 434.306c4.102-1.181 5.979-3.635 5.534-8.039-1.459 2.676-6.69 2.847-5.534 8.039ZM308.159 467.476c3.58-.65 5.095-1.9 4.679-4.707-3.694-.535-4.858 1.007-4.679 4.707ZM374.699 297.002c-3.57.004-5.066 1.763-4.553 5.313 3.571-.004 5.067-1.763 4.553-5.313ZM355.564 442.221c-.08-.303-.161-.64-.278-1.009-.45 1.514-4.238 1.186-3.599 3.61.642-.093 1.316-.256 2.024-.42a72.583 72.583 0 0 1 1.853-2.181ZM337.619 261.998c-.682.809-1.397 1.654-1.853 2.182-.673.162-1.347.325-2.024.419.119.437.343.939.81 1.567 2.509-.201 3.683-1.471 3.067-4.168ZM381.7 362.84c2.814-.213 3.944-1.753 2.79-5.177-.542 1.79-5.743.973-2.79 5.177ZM355.176 400.202c-.418-2.841-2.066-4.103-5.851-4.362 1.139 3.9 2.25 6.203 5.851 4.362ZM283.048 417.688c1.851.369 2.963 5.325 4.675 2.129 1.363-2.536-1.516-4.838-4.851-4.877.039.985.004 2.686.176 2.748ZM335.103 407.824c3.571-.004 5.067-1.763 4.553-5.314-3.57.004-5.066 1.763-4.553 5.314ZM362.059 422.242c3.58-.65 5.097-1.866 4.679-4.706-3.695-.569-4.859.973-4.679 4.706ZM328.199 188.263c.408-.016.731-.436.938-1.227.175-.755-.273-1.757-.613-2.628-.073-.134-.986.004-1.597.028 0 .884-.265 1.915.07 2.65.337.803.793 1.159 1.202 1.177-1.631 1.765-1.464 3.425.538 5.047 1.631-1.765 1.429-3.457-.538-5.047ZM363.272 342.989c.432-.255.104-1.671.102-2.589l-1.266-1.073c-.339.898-.815 1.767-.914 2.723-.127 1.093.848 1.667 2.078.939ZM375.069 329.876l-1.017-2.511-1.8.07c.373.836.647 1.744 1.185 2.471.181.265 1.088-.009 1.632-.03ZM374.865 366.34c-.858-.204-1.75-.407-2.608-.612.056.576-.045 1.464.233 1.623.8.445 1.724.579 2.583.817a46.156 46.156 0 0 0-.208-1.828ZM364.93 353.193l-1.017-2.511-1.8.071c.373.835.647 1.743 1.185 2.47.181.265 1.054-.007 1.632-.03ZM376.216 340.034l-1.017-2.511-1.8.07c.373.836.647 1.743 1.185 2.471.179.231 1.054-.008 1.632-.03ZM380.432 332.215c-.577.023-1.502-.145-1.628.098-.378.763-.444 1.684-.615 2.541l1.8-.071c.138-.821.273-1.711.443-2.568ZM353.19 314.816c-.858-.205-1.75-.408-2.61-.646.057.576-.045 1.464.234 1.623.765.446 1.721.545 2.582.817a25.017 25.017 0 0 1-.206-1.794ZM331.663 215.877c-.127 1.093.881 1.666 2.077.939.432-.255.105-1.671.103-2.589l-1.267-1.072c-.305.896-.781 1.765-.913 2.722ZM261.993 455.786c.05.406.472.764 1.298 1.004.791.241 1.761-.172 2.601-.443.134-.039-.107-.982-.164-1.592-.887-.067-1.921-.4-2.657-.099-.77.302-1.129.69-1.078 1.13-.934-.405-1.84-.948-2.8-1.148-1.13-.194-1.603.742-.805 2.004.289.43 1.708.205 2.595.272.36-.354.685-.741 1.01-1.128ZM386.906 344.679c-.339-.837-.679-1.708-1.017-2.511l-1.8.071c.373.835.647 1.743 1.186 2.47.18.265 1.054-.007 1.631-.03ZM324.148 240.216c-.373-.836-.647-1.743-1.185-2.471-.18-.231-1.054.008-1.632.03l1.017 2.511 1.8-.07ZM380.51 355.881c-.858-.204-1.75-.408-2.61-.646.057.576-.044 1.464.234 1.623.766.446 1.722.545 2.583.817-.057-.576-.148-1.15-.207-1.794ZM257.712 474.114c.766.446 1.722.545 2.583.817-.057-.576.044-1.464-.234-1.623-.799-.445-1.723-.579-2.582-.817.09.575-.045 1.464.233 1.623ZM266.175 467.015c.378-.763.444-1.684.614-2.54l-1.799.07c-.138.822-.307 1.713-.444 2.568.543-.021 1.47.181 1.629-.098ZM368.657 275.577c-.858-.205-1.717-.409-2.609-.612.057.575-.044 1.464.234 1.623.766.446 1.722.544 2.583.817-.057-.576-.114-1.152-.208-1.828ZM192.947 471.176c-.577.023-1.502-.145-1.628.098-.379.763-.444 1.684-.615 2.54l1.8-.07c.102-.854.273-1.711.443-2.568ZM273.984 469.291c.033-.035.067-.037.066-.071.378-.763.444-1.683.614-2.54l-1.8.07a23.896 23.896 0 0 1-.279 1.542c.459.424.913.746 1.399.999Z"/>
  <path fill="#4a4a43" d="M273.983 469.291a8.698 8.698 0 0 1-1.364-.967l-.164 1.027c.476-.019 1.263.12 1.528-.06ZM347.234 241.83c-.373-.835-.646-1.743-1.185-2.47-.18-.265-1.054.007-1.631.03.339.837.679 1.708 1.016 2.511l1.8-.071ZM344.919 252.158c-.181-.265-1.054.007-1.632.03l1.017 2.511 1.8-.071c-.373-.836-.614-1.778-1.185-2.47ZM355.985 251.654c-.804.303-1.714.509-2.375 1.011-.231.179.075 1.051.132 1.627.839-.271 1.644-.574 2.449-.844-.093-.643-.149-1.219-.206-1.794ZM337.661 316.039c.339.837.679 1.707 1.017 2.51l1.799-.07c-.372-.836-.646-1.743-1.185-2.47-.179-.231-1.052.041-1.631.03ZM342.183 310.791c.339.837.679 1.708 1.017 2.511l1.799-.071c-.372-.835-.646-1.743-1.183-2.436-.216-.298-1.09-.025-1.633-.004ZM360.197 289.682c.373.835.646 1.743 1.185 2.47.179.231 1.054-.008 1.631-.03l-1.017-2.511-1.799.071ZM340.692 343.024c.766.446 1.722.544 2.583.817a43.03 43.03 0 0 0-.206-1.795c-.859-.204-1.717-.408-2.609-.612.089.541-.046 1.431.232 1.59ZM354.221 327.225c.766.446 1.722.544 2.583.817a41.497 41.497 0 0 0-.207-1.795c-.858-.204-1.716-.409-2.61-.646.09.541-.044 1.465.234 1.624ZM328.38 369.895c.544-.021 1.468.147 1.629-.098.378-.763.444-1.683.648-2.542l-1.799.071c-.206.824-.342 1.68-.478 2.569ZM353.089 339.985c.765.446 1.721.545 2.582.817a41.188 41.188 0 0 0-.206-1.794c-.858-.204-1.751-.408-2.61-.646.09.575-.045 1.464.234 1.623ZM378.841 375.773c.001.884-.266 1.881.07 2.65.37.767.792 1.125 1.166 1.11-1.496 1.759-2.991 3.518-4.488 5.243 1.464 1.779 3.19 1.576 4.471.403 1.706-1.597 2.82-3.545.05-5.647.374-.015.732-.437.939-1.227.173-.789-.273-1.758-.613-2.629-.071-.065-1.018.074-1.595.097ZM305.963 416.617c0 .884-.265 1.915.07 2.65.37.768.792 1.125 1.201 1.143-.339.898-.815 1.767-.914 2.723-.127 1.093.882 1.666 2.077.939.433-.255.105-1.671.103-2.589-.422-.358-.81-.717-1.232-1.074.407-.016.732-.403.905-1.192.173-.789-.274-1.792-.613-2.628-.074-.168-1.02.005-1.597.028ZM319.081 400.799c.339.837.679 1.708 1.017 2.511l1.8-.071c-.373-.835-.647-1.743-1.185-2.47-.213-.23-1.088.009-1.632.03ZM323.804 397.18c.765.446 1.722.544 2.582.817a39.89 39.89 0 0 0-.206-1.795c-.858-.204-1.716-.409-2.61-.646.055.542-.044 1.464.234 1.624ZM356.868 366.161c.18.265 1.054-.007 1.631-.029-.339-.837-.679-1.708-1.017-2.511l-1.799.07c.372.836.647 1.777 1.185 2.47ZM300.309 434.659c.001.885-.266 1.881.07 2.65-.884 3.47-3.22 4.616-1.47 7.608 3.223-.195 4.268-2.174 3.447-7.481.03-.103.134-.073.162-.211.175-.755-.273-1.757-.613-2.628-.039-.135-.985.038-1.596.062ZM304.657 431.022c.766.446 1.722.545 2.583.817-.057-.576.044-1.464-.234-1.623-.766-.446-1.722-.545-2.583-.817.057.576-.044 1.464.234 1.623ZM331.747 400.305c.578-.022 1.502.146 1.629-.097.379-.729.444-1.684.614-2.541l-1.799.07c-.137.856-.307 1.713-.444 2.568ZM321.665 438.925c-.378.763-.444 1.684-.615 2.541l1.8-.071c.138-.822.308-1.679.444-2.568-.578.023-1.502-.145-1.629.098ZM352.032 422.396c.84-.271 1.644-.574 2.45-.844-.061-.678-.151-1.252-.207-1.794-.804.303-1.714.509-2.375 1.011-.265.18.077 1.085.132 1.627ZM402.047 339.667c.001.884-.266 1.881.07 2.65.707 1.571 1.76 1.529 2.139-.084.173-.789-.274-1.792-.613-2.629-.073-.133-1.019.04-1.596.063ZM333.215 229.49c.181.265 1.054-.008 1.632-.03-.339-.837-.679-1.708-1.017-2.511l-1.8.07c.408.869.648 1.777 1.185 2.471Z"/>
</svg>